<svg width="31" height="31" viewBox="0 0 31 31" fill="none" xmlns="http://www.w3.org/2000/svg">
<g id="Group">
<path id="Path" fill-rule="evenodd" clip-rule="evenodd" d="M16.1456 7.71136L15.4885 8.37856L14.8313 7.71126C13.6332 6.49404 11.9966 5.80859 10.2886 5.80859C8.58066 5.80859 6.94413 6.49404 5.74597 7.71126C3.24744 10.2788 3.24744 14.3689 5.74597 16.9365L12.7064 24.004C13.4402 24.7495 14.4425 25.1693 15.4885 25.1693C16.5346 25.1693 17.5369 24.7495 18.2707 24.004L25.2311 16.9366C27.7296 14.3691 27.7296 10.279 25.2311 7.71138C24.0329 6.49412 22.3964 5.80864 20.6883 5.80864C18.9803 5.80863 17.3438 6.49411 16.1456 7.71136Z" fill="#FF808B" stroke="#FF808B" stroke-width="1.32759" stroke-linecap="round" stroke-linejoin="round"/>
</g>
</svg>
