<svg width="12" height="18" viewBox="0 0 12 18" fill="none" xmlns="http://www.w3.org/2000/svg">
<g id="Group">
<path id="Path" fill-rule="evenodd" clip-rule="evenodd" d="M7.30769 10.7444H9.70646C9.90661 10.7444 10.0811 10.6082 10.1296 10.414L10.7839 7.79693C10.8165 7.66662 10.7872 7.52858 10.7045 7.42271C10.6219 7.31684 10.495 7.25496 10.3607 7.25496H7.30769V5.51024C7.30769 5.02845 7.69826 4.63788 8.18005 4.63788H10.3609C10.6018 4.63788 10.7971 4.44259 10.7971 4.2017V1.58462C10.7971 1.34372 10.6018 1.14844 10.3609 1.14844H8.18005C5.7711 1.14844 3.81825 3.10128 3.81825 5.51024V7.25496H1.63735C1.39646 7.25496 1.20117 7.45024 1.20117 7.69114V10.3082C1.20117 10.5491 1.39646 10.7444 1.63735 10.7444H3.81825V16.4147C3.81825 16.6556 4.01354 16.8509 4.25443 16.8509H6.87151C7.11241 16.8509 7.30769 16.6556 7.30769 16.4147V10.7444Z" stroke="#074EE8" stroke-width="1.40265" stroke-linecap="round" stroke-linejoin="round"/>
</g>
</svg>
