<svg xmlns="http://www.w3.org/2000/svg" width="24" height="25" viewBox="0 0 24 25" fill="none">
<path d="M14.1223 10.3798C15.2933 11.5508 15.2933 13.4518 14.1223 14.6248C12.9513 15.7958 11.0503 15.7958 9.87727 14.6248C8.70627 13.4538 8.70627 11.5527 9.87727 10.3798C11.0503 9.20675 12.9503 9.20675 14.1223 10.3798" stroke="#83858D" stroke-width="1.5" stroke-linecap="round" stroke-linejoin="round"/>
<path fill-rule="evenodd" clip-rule="evenodd" d="M3 12.5C3 11.841 3.152 11.189 3.446 10.588V10.588C4.961 7.491 8.309 5.5 12 5.5C15.691 5.5 19.039 7.491 20.554 10.588V10.588C20.848 11.189 21 11.841 21 12.5C21 13.159 20.848 13.811 20.554 14.412V14.412C19.039 17.509 15.691 19.5 12 19.5C8.309 19.5 4.961 17.509 3.446 14.412V14.412C3.152 13.811 3 13.159 3 12.5Z" stroke="#83858D" stroke-width="1.5" stroke-linecap="round" stroke-linejoin="round"/>
</svg>